<?xml version="1.0" standalone="no"?>
<!DOCTYPE svg PUBLIC "-//W3C//DTD SVG 20010904//EN"
 "http://www.w3.org/TR/2001/REC-SVG-20010904/DTD/svg10.dtd">
<svg version="1.0" xmlns="http://www.w3.org/2000/svg"
 width="500.000000pt" height="500.000000pt" viewBox="0 0 500.000000 500.000000"
 preserveAspectRatio="xMidYMid meet">

<g transform="translate(0.000000,500.000000) scale(0.100000,-0.100000)"
fill="#000000" stroke="none">
<path d="M815 2962 c-62 -39 -60 -20 -63 -443 -3 -430 -2 -441 60 -479 33 -20
42 -20 1695 -18 l1663 3 32 33 33 32 3 406 3 406 -39 39 -40 39 -1658 0
c-1591 0 -1660 -1 -1689 -18z m1675 -462 l0 -390 -820 0 -820 0 0 390 0 390
820 0 820 0 0 -390z"/>
<path d="M1486 2645 c-45 -108 -86 -214 -86 -224 0 -25 31 -8 45 25 14 34 16
35 62 32 45 -3 49 -5 59 -38 10 -29 16 -34 35 -32 13 2 25 5 27 7 3 3 -74 219
-88 245 -16 30 -38 24 -54 -15z m57 -137 c-6 -11 -73 -10 -73 1 0 5 6 24 14
42 7 19 17 43 21 54 6 16 11 10 25 -35 9 -30 15 -58 13 -62z"/>
<path d="M1909 2615 c-28 -36 -55 -65 -60 -65 -5 0 -9 27 -9 60 0 53 -2 60
-20 60 -19 0 -20 -7 -21 -115 -1 -63 -2 -121 -3 -127 -1 -7 11 -14 27 -16 26
-3 27 -2 27 46 0 73 21 75 60 7 24 -41 37 -55 54 -55 12 0 26 3 29 6 4 4 -14
35 -38 70 -25 34 -45 67 -45 73 0 6 12 25 28 43 53 63 54 65 37 72 -10 4 -31
-15 -66 -59z"/>
<path d="M2215 2668 c-28 -16 -35 -28 -35 -65 0 -38 17 -57 76 -85 33 -15 44
-26 44 -43 0 -36 -24 -50 -60 -35 -16 7 -30 16 -30 21 0 16 -25 9 -37 -10 -11
-17 -8 -21 30 -36 52 -21 99 -13 127 22 39 49 22 91 -51 128 -55 28 -68 47
-49 70 15 18 43 19 70 3 17 -11 22 -10 30 2 14 22 12 27 -12 34 -35 9 -81 7
-103 -6z"/>
<path d="M1005 2660 c-6 -10 65 -113 86 -126 5 -3 9 -34 9 -70 0 -65 7 -75 38
-55 9 5 13 25 11 58 -2 44 3 58 39 116 23 37 42 71 42 77 0 5 -13 10 -29 10
-25 0 -31 -7 -54 -60 -15 -33 -28 -60 -31 -60 -2 0 -21 27 -41 60 -35 57 -56
72 -70 50z"/>
</g>
</svg>
